<svg width="48" height="38" viewBox="0 0 48 38" fill="none" xmlns="http://www.w3.org/2000/svg">
<path d="M11.4 36.76C10.96 36.88 10.26 37 9.3 37.12C8.38 37.24 7.46 37.3 6.54 37.3C5.62 37.3 4.8 37.22 4.08 37.06C3.4 36.94 2.82 36.7 2.34 36.34C1.86 35.98 1.5 35.48 1.26 34.84C1.02 34.2 0.9 33.36 0.9 32.32V0.64C1.34 0.559998 2.04 0.459998 3 0.34C3.96 0.18 4.88 0.0999994 5.76 0.0999994C6.68 0.0999994 7.48 0.18 8.16 0.34C8.88 0.459998 9.48 0.699998 9.96 1.06C10.44 1.42 10.8 1.92 11.04 2.56C11.28 3.2 11.4 4.04 11.4 5.08V36.76Z" fill="#6E69DB"/>
<path d="M17.5013 9.04C17.2213 8.6 16.9613 8 16.7213 7.24C16.4813 6.48 16.3613 5.68 16.3613 4.84C16.3613 3.28 16.7013 2.16 17.3813 1.48C18.1013 0.799999 19.0213 0.459998 20.1413 0.459998H46.3013C46.5813 0.899997 46.8413 1.5 47.0813 2.26C47.3213 3.02 47.4413 3.82 47.4413 4.66C47.4413 6.22 47.0813 7.34 46.3613 8.02C45.6813 8.7 44.7813 9.04 43.6613 9.04H37.0013V36.76C36.5613 36.88 35.8613 37 34.9013 37.12C33.9813 37.24 33.0613 37.3 32.1413 37.3C31.2213 37.3 30.4013 37.22 29.6813 37.06C29.0013 36.94 28.4213 36.7 27.9413 36.34C27.4613 35.98 27.1013 35.48 26.8613 34.84C26.6213 34.2 26.5013 33.36 26.5013 32.32V9.04H17.5013Z" fill="#E8688D"/>
</svg>
